<svg width="64" height="64" viewBox="0 0 200 210" fill="none" xmlns="http://www.w3.org/2000/svg">
  <defs>
    <linearGradient id="sb-shield-stroke" x1="20" y1="15" x2="180" y2="200" gradientUnits="userSpaceOnUse">
      <stop offset="0%" stop-color="#082A38" />
      <stop offset="50%" stop-color="#0B4052" />
      <stop offset="100%" stop-color="#0284C7" />
    </linearGradient>
    <linearGradient id="sb-leaf-grad" x1="60" y1="35" x2="110" y2="175" gradientUnits="userSpaceOnUse">
      <stop offset="0%" stop-color="#84CC16" />
      <stop offset="25%" stop-color="#22C55E" />
      <stop offset="65%" stop-color="#10B981" />
      <stop offset="100%" stop-color="#047857" />
    </linearGradient>
    <linearGradient id="sb-wave-1" x1="100" y1="105" x2="180" y2="125" gradientUnits="userSpaceOnUse">
      <stop offset="0%" stop-color="#06B6D4" />
      <stop offset="100%" stop-color="#0284C7" />
    </linearGradient>
    <linearGradient id="sb-wave-2" x1="90" y1="130" x2="175" y2="155" gradientUnits="userSpaceOnUse">
      <stop offset="0%" stop-color="#0284C7" />
      <stop offset="100%" stop-color="#0369A1" />
    </linearGradient>
    <linearGradient id="sb-wave-3" x1="75" y1="155" x2="165" y2="180" gradientUnits="userSpaceOnUse">
      <stop offset="0%" stop-color="#0369A1" />
      <stop offset="60%" stop-color="#075985" />
      <stop offset="100%" stop-color="#082F49" />
    </linearGradient>
  </defs>
  <path d="M100 14 L176 46 C176 112 152 165 100 196 C48 165 24 112 24 46 L100 14 Z" stroke="url(#sb-shield-stroke)" stroke-width="12" stroke-linecap="round" stroke-linejoin="round" fill="none" />
  <path d="M100 38 C100 38 78 68 64 96 C50 124 55 152 75 168 C68 152 66 128 78 106 C88 88 100 70 100 38 Z" fill="url(#sb-leaf-grad)" />
  <path d="M100 38 C100 38 108 72 104 104 C100 126 88 150 75 168 C90 156 108 132 110 104 C112 78 100 38 100 38 Z" fill="url(#sb-leaf-grad)" opacity="0.95" />
  <path d="M110 104 C124 95 142 94 158 100 C168 104 174 112 176 120 C168 112 154 108 140 108 C124 108 112 114 96 126 C102 118 106 110 110 104 Z" fill="url(#sb-wave-1)" />
  <path d="M96 126 C112 116 130 116 148 122 C162 127 170 137 172 146 C164 136 150 131 134 131 C118 131 104 139 88 150 C92 141 94 133 96 126 Z" fill="url(#sb-wave-2)" />
  <path d="M88 150 C104 140 122 140 138 146 C152 152 160 162 162 172 C154 161 140 155 124 155 C108 155 94 163 76 172 C80 164 84 157 88 150 Z" fill="url(#sb-wave-3)" />
</svg>
